<svg width="452" height="449" viewBox="0 0 452 449" fill="none" xmlns="http://www.w3.org/2000/svg">
<path d="M213.319 0L298.901 9.22313L228.776 225.515L213.319 0Z" fill="white"/>
<path d="M157.089 9.22313L83.5832 30.8021L228.776 225.515L157.089 9.22313Z" fill="white"/>
<path d="M247.334 449L356.137 428.257L228.776 225.515L247.334 449Z" fill="white"/>
<path d="M157.089 441.807L83.5832 420.228L228.776 225.515L157.089 441.807Z" fill="white"/>
<path d="M434.803 157.768L452 243.851L229.781 222.327L434.803 157.768Z" fill="white"/>
<path d="M424.458 84.7585L356.137 30.8021L229.781 222.327L424.458 84.7585Z" fill="white"/>
<path d="M0 311.289L75.4066 371.516L229.781 222.327L0 311.289Z" fill="white"/>
<path d="M13.749 245.876L8.86541 185.079L229.781 222.327L13.749 245.876Z" fill="white"/>
<path d="M55.3642 62.3627L0.998132 134.333L226.703 223.14L55.3642 62.3627Z" fill="white"/>
<path d="M410.47 371.244L451.033 302.318L226.765 222.928L410.47 371.244Z" fill="white"/>
</svg>
